<svg viewBox="0 0 512 512" xmlns="http://www.w3.org/2000/svg">
  <rect
    rx="70"
    ry="70"
    width="512"
    height="512"
    x="-512"
    y="-512"
    fill="#58355E"
    transform="scale(-1,-1)"
  />
  <path
    d="m 81.05643,267.04958 c 43.7041,0 84.78879,17.07214 115.66407,48.12395 30.93179,31.05179 47.96156,72.41184 47.96156,116.44072 h 67.34951 c 0,-127.8857 -103.61898,-231.92124 -230.97514,-231.92124 v 67.35657 z M 81.1624,147.65054 c 155.7603,0 282.48808,127.4197 282.48808,284.04844 H 431 C 431,237.92528 274.05354,80.30102 81.1624,80.30102 v 67.34952 z m 93.13421,236.99769 c 0,25.75647 -20.89183,46.6483 -46.6483,46.6483 C 101.89184,431.29653 81,410.41176 81,384.64823 c 0,-25.7706 20.88477,-46.64831 46.64124,-46.64831 25.75649,0 46.65537,20.87771 46.65537,46.64831 z"
    fill="#ffffff"
  />
</svg>
